# xmcd
#
# Track frame offsets: 
#        150
#        17540
#        37259
#        59392
#        77643
#        108086
#        125988
#        146062
#        168031
#        194525
#        211048
#        233803
#        252209
#        279893
#
# Disc length: 4049 seconds
#
# Revision: 19
# Processed by: cddbd v1.5.2PL0 Copyright (c) Steve Scherf et al.
# Submitted via: ExactAudioCopyFreeDBPlugin 1.0
#
DISCID=be0fcf0e
DTITLE=Taylor Swift - Speak Now [2012 Deluxe ed. CD 1]
DYEAR=2010
DGENRE=Country Pop
TTITLE0=Mine
TTITLE1=Sparks Fly
TTITLE2=Back to December
TTITLE3=Speak Now
TTITLE4=Dear John
TTITLE5=Mean
TTITLE6=The Story of Us
TTITLE7=Never Grow Up
TTITLE8=Enchanted
TTITLE9=Better Than Revenge
TTITLE10=Innocent
TTITLE11=Haunted
TTITLE12=Last Kiss
TTITLE13=Long Live
EXTD=
EXTT0=
EXTT1=
EXTT2=
EXTT3=
EXTT4=
EXTT5=
EXTT6=
EXTT7=
EXTT8=
EXTT9=
EXTT10=
EXTT11=
EXTT12=
EXTT13=
PLAYORDER=
